# xmcd
#
# Track frame offsets: 
#        165
#        18678
#        36867
#        54464
#        74174
#        89241
#        106520
#        124376
#        148639
#        165366
#        182005
#        198551
#        213697
#        229738
#        244225
#
# Disc length: 3459 seconds
#
# Revision: 19
# Processed by: cddbd v1.5.2PL0 Copyright (c) Steve Scherf et al.
# Submitted via: ExactAudioCopy v1.3
#
DISCID=e40d810f
DTITLE=João Paulo and Daniel - João Paulo and Daniel - Vol. 8
DYEAR=1997
DGENRE=Sertaneja
TTITLE0=Ela Tem O Dom De Me Fazer Chorar
TTITLE1=Fim De Semana
TTITLE2=Acabou
TTITLE3=Muda
TTITLE4=No Mesmo Lugar (Coisa Estranha)
TTITLE5=Tô Ficando Louco
TTITLE6=Gruda Em Mim
TTITLE7=Te Amo Cada Vez Mais (To Love You More)
TTITLE8=Louco De Desejo
TTITLE9=As Coisas São Como São
TTITLE10=Vazio
TTITLE11=Preciso Te Encontrar
TTITLE12=A Loira Do Carro Branco
TTITLE13=Poeira Da Estrada
TTITLE14=Mini-saia
EXTD=
EXTT0=
EXTT1=
EXTT2=
EXTT3=
EXTT4=
EXTT5=
EXTT6=
EXTT7=
EXTT8=
EXTT9=
EXTT10=
EXTT11=
EXTT12=
EXTT13=
EXTT14=
PLAYORDER=
